<?xml version="1.0" encoding="utf-8"?>
<svg viewBox="0 0 500 500" xmlns="http://www.w3.org/2000/svg">
  <defs>
    <clipPath id="clip0">
      <rect width="38" height="38" fill="white"/>
    </clipPath>
  </defs>
  <circle cx="250" cy="250" r="247.245" fill="#FFCD00" style=""/>
  <g clip-path="url(#clip0)" transform="matrix(6.339597, 0, 0, 6.339597, 129.547592, 129.54834)" style="">
    <path d="M13.8449 20.9644C13.8449 20.4884 13.4588 20.1028 12.9824 20.1028H9.97255C9.49669 20.1028 9.1105 20.4884 9.1105 20.9644V23.9739C9.1105 24.4505 9.49669 24.8363 9.97255 24.8363H12.9824C13.4588 24.8363 13.8449 24.4505 13.8449 23.9739V20.9644Z" fill="black"/>
    <path d="M21.367 20.9644C21.367 20.4884 20.9808 20.1028 20.5053 20.1028H17.4951C17.0192 20.1028 16.633 20.4884 16.633 20.9644V23.9739C16.633 24.4505 17.0192 24.8363 17.4951 24.8363H20.5053C20.9808 24.8363 21.367 24.4505 21.367 23.9739V20.9644Z" fill="black"/>
    <path d="M28.8895 20.9644C28.8895 20.4884 28.5033 20.1028 28.0274 20.1028H25.0175C24.5411 20.1028 24.155 20.4884 24.155 20.9644V23.9739C24.155 24.4505 24.5411 24.8363 25.0175 24.8363H28.0274C28.5033 24.8363 28.8895 24.4505 28.8895 23.9739V20.9644Z" fill="black"/>
    <path d="M13.8449 28.4872C13.8449 28.0104 13.4588 27.6251 12.9824 27.6251H9.97255C9.49669 27.6251 9.1105 28.0104 9.1105 28.4872V31.4961C9.1105 31.9725 9.49669 32.3582 9.97255 32.3582H12.9824C13.4588 32.3582 13.8449 31.9724 13.8449 31.4961V28.4872Z" fill="black"/>
    <path d="M21.367 28.4872C21.367 28.0104 20.9808 27.6251 20.5053 27.6251H17.4951C17.0192 27.6251 16.633 28.0104 16.633 28.4872V31.4961C16.633 31.9725 17.0192 32.3582 17.4951 32.3582H20.5053C20.9808 32.3582 21.367 31.9724 21.367 31.4961V28.4872Z" fill="black"/>
    <path d="M28.8895 28.4872C28.8895 28.0104 28.5033 27.6251 28.0278 27.6251H25.0175C24.5411 27.6251 24.155 28.0104 24.155 28.4872V31.4961C24.155 31.9725 24.5411 32.3582 25.0175 32.3582H28.0278C28.5033 32.3582 28.8895 31.9724 28.8895 31.4961V28.4872Z" fill="black"/>
    <path d="M34.2714 4.23116V8.82789C34.2714 10.9056 32.5859 12.5798 30.5085 12.5798H28.1348C26.0573 12.5798 24.3495 10.9056 24.3495 8.82789V4.21466H13.6505V8.82789C13.6505 10.9056 11.9427 12.5798 9.86554 12.5798H7.49136C5.41408 12.5798 3.72866 10.9056 3.72866 8.82789V4.23116C1.9131 4.28589 0.421204 5.78821 0.421204 7.63477V34.5738C0.421204 36.455 1.94602 38.0001 3.82729 38.0001H34.1727C36.0511 38.0001 37.5788 36.4519 37.5788 34.5738V7.63477C37.5788 5.78821 36.087 4.28589 34.2714 4.23116ZM33.1689 32.8962C33.1689 33.7092 32.5097 34.3688 31.6964 34.3688H6.23876C5.42544 34.3688 4.76626 33.7092 4.76626 32.8962V18.9813C4.76626 18.1679 5.42537 17.5084 6.23876 17.5084H31.6963C32.5096 17.5084 33.1688 18.1679 33.1688 18.9813L33.1689 32.8962Z" fill="black"/>
    <path d="M7.48304 10.1155H9.83099C10.5437 10.1155 11.1215 9.53853 11.1215 8.82587V1.29012C11.1215 0.577373 10.5437 0 9.83099 0H7.48304C6.7703 0 6.19254 0.577373 6.19254 1.29012V8.82587C6.19254 9.53853 6.7703 10.1155 7.48304 10.1155Z" fill="black"/>
    <path d="M28.1046 10.1155H30.4526C31.1648 10.1155 31.7426 9.53853 31.7426 8.82587V1.29012C31.7427 0.577373 31.1648 0 30.4526 0H28.1046C27.392 0 26.8142 0.577373 26.8142 1.29012V8.82587C26.8142 9.53853 27.392 10.1155 28.1046 10.1155Z" fill="black"/>
  </g>
</svg>