<svg width="13" height="15" viewBox="0 0 13 15" fill="none" xmlns="http://www.w3.org/2000/svg">
<path d="M11.9569 9.84578C11.161 9.84578 10.3795 9.70215 9.63892 9.41977C9.27604 9.27695 8.82995 9.40797 8.60847 9.67043L7.14675 10.9436C5.45157 9.89953 4.40737 8.69508 3.51484 6.75379L4.58582 5.11113C4.86407 4.79051 4.96387 4.32215 4.84429 3.8827C4.59851 3.02371 4.47366 2.12242 4.47366 1.20367C4.47369 0.539961 4.00573 0 3.43054 0H1.04315C0.467966 0 0 0.539961 0 1.20363C0 8.81105 5.36379 15 11.9569 15C12.5321 15 13 14.46 13 13.7964V11.0494C13 10.3857 12.532 9.84578 11.9569 9.84578Z" fill="#FFCD00"/>
</svg>
