<?xml version="1.0" encoding="utf-8"?>
<svg viewBox="0 0 500 500" xmlns="http://www.w3.org/2000/svg">
  <circle cx="250" cy="250" r="247.811" fill="#FFCD00" style=""/>
  <path d="M 250 122.919 C 179.926 122.919 122.917 179.928 122.917 250 C 122.917 320.074 179.926 377.083 250 377.083 C 320.072 377.083 377.082 320.074 377.082 250 C 377.082 179.928 320.072 122.919 250 122.919 Z M 310.439 315.735 C 308.374 317.799 305.661 318.835 302.948 318.835 C 300.241 318.835 297.529 317.799 295.462 315.735 L 242.513 262.786 C 240.518 260.803 239.407 258.116 239.407 255.294 L 239.407 186.46 C 239.407 180.601 244.153 175.867 250 175.867 C 255.845 175.867 260.592 180.601 260.592 186.46 L 260.592 250.91 L 310.439 300.758 C 314.576 304.9 314.576 311.591 310.439 315.735 Z" fill="black" style=""/>
</svg>