<svg width="16" height="18" viewBox="0 0 16 18" fill="none" xmlns="http://www.w3.org/2000/svg">
<path d="M0.333999 3.34533C2.52993 5.43751 6.38312 9.1183 7.51562 10.266C7.66765 10.4209 7.83071 10.4996 7.99999 10.4996C8.16893 10.4996 8.33171 10.4216 8.4834 10.2675C9.61687 9.11865 13.4701 5.43751 15.666 3.34533C15.8027 3.21532 15.8236 2.9868 15.7129 2.82786C15.457 2.46059 15.0755 2.25 14.6666 2.25H1.33334C0.924498 2.25 0.542967 2.46059 0.287124 2.8279C0.176436 2.9868 0.19728 3.21532 0.333999 3.34533Z" fill="#FFCD00"/>
<path d="M15.8067 4.47881C15.6885 4.41693 15.5495 4.43852 15.4512 4.53302C13.0159 6.85551 9.90788 9.83247 8.93 10.8238C8.38116 11.3811 7.61944 11.3811 7.06931 10.823C6.027 9.76652 2.53675 6.4285 0.548813 4.53298C0.449844 4.43848 0.310531 4.41764 0.193344 4.47877C0.0755312 4.54033 0 4.67291 0 4.81902V14.2497C0 15.077 0.597969 15.7497 1.33334 15.7497H14.6667C15.402 15.7497 16 15.077 16 14.2497V4.81902C16 4.67291 15.9245 4.53998 15.8067 4.47881Z" fill="#FFCD00"/>
</svg>
