<svg width="24" height="33" viewBox="0 0 24 33" fill="none" xmlns="http://www.w3.org/2000/svg">
<path d="M12 0C5.75089 0 0.666626 4.93473 0.666626 11C0.666626 12.8208 1.13565 14.6262 2.02729 16.2274L11.3802 32.6455C11.5047 32.8644 11.742 33 12 33C12.258 33 12.4952 32.8644 12.6198 32.6455L21.9761 16.222C22.8643 14.6262 23.3333 12.8208 23.3333 11C23.3333 4.93472 18.2491 0 12 0ZM12 16.5C8.87543 16.5 6.33334 14.0327 6.33334 11C6.33334 7.96737 8.87543 5.50004 12 5.50004C15.1245 5.50004 17.6666 7.96737 17.6666 11C17.6666 14.0327 15.1245 16.5 12 16.5Z" fill="#FFCD00"/>
</svg>
