<?xml version="1.0" encoding="utf-8"?>
<svg viewBox="0 0 500 500" xmlns="http://www.w3.org/2000/svg">
  <circle cx="250" cy="250" r="247.711" fill="#FFCD00" style=""/>
  <path d="M 358.591 128.322 L 238.604 128.322 C 224.718 128.322 213.465 139.578 213.465 153.462 L 213.465 212.562 C 219.802 215.719 226.656 219.124 233.051 222.306 L 242.84 202.724 C 248.766 190.879 263.215 186.07 275.055 191.984 C 286.913 197.924 291.721 212.328 285.784 224.192 L 268.335 259.094 C 268.799 263.712 268.386 268.374 267.084 272.876 L 278.604 272.876 L 248.227 356.419 C 246.421 361.373 249.909 367.159 255.746 367.159 C 259.012 367.159 262.085 365.139 263.26 361.888 L 295.633 272.876 L 301.237 272.876 L 333.934 361.913 C 335.126 365.154 338.188 367.159 341.454 367.159 C 346.91 367.159 350.912 361.702 348.956 356.401 L 318.285 272.876 L 358.591 272.876 C 372.475 272.876 383.728 261.622 383.728 247.738 L 383.728 153.462 C 383.728 139.578 372.475 128.322 358.591 128.322 L 358.591 128.322 Z M 341.448 238.598 L 305.548 238.598 C 301.129 238.598 297.545 235.016 297.545 230.602 C 297.545 226.175 301.129 222.599 305.548 222.599 L 341.448 222.599 C 345.868 222.599 349.45 226.175 349.45 230.602 C 349.45 235.016 345.868 238.598 341.448 238.598 Z M 341.448 208.6 L 305.548 208.6 C 301.129 208.6 297.545 205.022 297.545 200.596 C 297.545 196.182 301.129 192.601 305.548 192.601 L 341.448 192.601 C 345.868 192.601 349.45 196.182 349.45 200.596 C 349.45 205.022 345.868 208.6 341.448 208.6 Z M 341.448 178.608 L 255.746 178.608 C 251.324 178.608 247.743 175.019 247.743 170.604 C 247.743 166.191 251.324 162.602 255.746 162.602 L 341.448 162.602 C 345.868 162.602 349.45 166.191 349.45 170.604 C 349.45 175.019 345.868 178.608 341.448 178.608 Z" fill="black" style=""/>
  <path d="M 251.402 269.447 C 252.844 265.21 252.838 260.785 251.618 256.744 L 271.472 217.034 C 273.447 213.084 271.846 208.275 267.896 206.299 C 263.945 204.325 259.138 205.926 257.162 209.877 L 240.223 243.748 C 230.098 238.705 214.722 231.058 202.329 224.898 C 190.801 219.163 182.576 214.024 168.539 214.024 L 161.47 214.024 C 172.401 214.024 182.157 208.994 188.541 201.124 C 193.413 195.134 196.322 187.5 196.322 179.179 C 196.322 159.929 180.722 144.322 161.47 144.322 C 142.225 144.322 126.619 159.929 126.619 179.179 C 126.619 188.422 130.221 196.825 136.097 203.061 C 142.447 209.812 151.467 214.024 161.464 214.024 C 148.055 214.024 134.952 219.461 125.521 228.912 C 115.911 238.503 110.613 251.275 110.613 264.881 L 110.613 290.591 C 110.613 301.663 117.802 311.075 127.756 314.429 L 127.756 359.15 C 127.756 363.571 131.338 367.153 135.758 367.153 L 187.181 367.153 C 191.601 367.153 195.184 363.571 195.184 359.15 L 195.184 269.25 C 202.767 273.043 212.734 278.028 220.8 282.061 C 226.453 284.888 233.057 285.141 238.948 282.741 C 244.821 280.327 249.35 275.513 251.369 269.544 C 251.375 269.51 251.388 269.48 251.402 269.447 Z" fill="black" style=""/>
</svg>