<?xml version="1.0" encoding="utf-8"?>
<svg viewBox="0 0 500 500" xmlns="http://www.w3.org/2000/svg">
  <defs>
    <clipPath id="clip0">
      <rect width="122" height="122" fill="white"/>
    </clipPath>
  </defs>
  <circle cx="250" cy="250" r="246.414" fill="#FFCD00" style=""/>
  <g clip-path="url(#clip0)" transform="matrix(2.180656, 0, 0, 2.180656, 116.980301, 116.979889)" style="">
    <path d="M31.0333 32.9464L20.4637 33.763C17.5226 33.9903 14.9032 35.5317 13.2767 37.992L1.08703 56.4281C-0.146543 58.2938 -0.342647 60.6287 0.5621 62.6741C1.46708 64.7195 3.32686 66.1449 5.5369 66.4873L15.2146 67.9861C17.4785 55.9721 22.8979 43.9876 31.0333 32.9464Z" fill="black"/>
    <path d="M54.0136 106.785L55.5127 116.463C55.8551 118.673 57.2805 120.533 59.3256 121.437C60.1765 121.814 61.0772 122 61.9734 122C63.2322 122 64.4822 121.633 65.5719 120.912L84.0085 108.723C86.4687 107.096 88.0101 104.477 88.237 101.536L89.0536 90.9665C78.0122 99.1021 66.0279 104.521 54.0136 106.785Z" fill="black"/>
    <path d="M50.3739 100.077C50.7099 100.077 51.0478 100.05 51.385 99.9935C56.4184 99.1519 61.2698 97.7341 65.8976 95.8784L26.1216 56.1024C24.2659 60.73 22.8482 65.5814 22.0066 70.6151C21.6749 72.5992 22.3404 74.6205 23.7627 76.0431L45.957 98.2374C47.1379 99.418 48.7317 100.077 50.3739 100.077Z" fill="black"/>
    <path d="M112.272 54.0901C122.006 35.2723 122.366 15.3864 121.857 6.06016C121.683 2.86459 119.136 0.316912 115.94 0.142729C114.421 0.0598081 112.622 0 110.593 0C100.165 0 83.6634 1.57955 67.9098 9.72799C55.3902 16.2037 38.9734 30.4626 29.2878 49.2014C29.4022 49.2907 29.514 49.3855 29.6193 49.4909L72.5096 92.3812C72.6149 92.4865 72.7095 92.598 72.7989 92.7124C91.5376 83.0266 105.796 66.6098 112.272 54.0901ZM70.9355 25.7914C77.903 18.8238 89.2406 18.8231 96.2086 25.7914C99.5841 29.1666 101.443 33.6546 101.443 38.428C101.443 43.2015 99.5841 47.6895 96.2086 51.0647C92.7252 54.5481 88.1479 56.2902 83.5722 56.2906C78.9951 56.2909 74.4199 54.5491 70.9355 51.0647C67.56 47.6895 65.701 43.2015 65.701 38.428C65.701 33.6546 67.56 29.1666 70.9355 25.7914Z" fill="black"/>
    <path d="M75.9899 46.01C80.1706 50.1906 86.9735 50.1909 91.1542 46.01C93.1793 43.9846 94.2947 41.292 94.2947 38.4279C94.2947 35.5637 93.1793 32.8711 91.1542 30.846C89.064 28.7556 86.318 27.7104 83.5721 27.7104C80.8263 27.7104 78.0804 28.7556 75.9902 30.846C73.965 32.8711 72.8494 35.5637 72.8494 38.4279C72.8494 41.292 73.9648 43.9848 75.9899 46.01Z" fill="black"/>
    <path d="M3.64691 100.539C4.56167 100.539 5.47643 100.19 6.17412 99.4923L17.8435 87.8229C19.2393 86.4271 19.2393 84.1641 17.8435 82.7683C16.4479 81.3724 14.1847 81.3724 12.7888 82.7683L1.11946 94.4376C-0.276392 95.8335 -0.276392 98.0964 1.11946 99.4923C1.81739 100.19 2.73215 100.539 3.64691 100.539Z" fill="black"/>
    <path d="M28.5378 93.4625C27.1422 92.0666 24.879 92.0666 23.4831 93.4625L1.04774 115.898C-0.348108 117.294 -0.348108 119.557 1.04774 120.953C1.74567 121.65 2.66043 121.999 3.57519 121.999C4.48995 121.999 5.40472 121.65 6.1024 120.952L28.5375 98.5171C29.9336 97.1213 29.9336 94.8583 28.5378 93.4625Z" fill="black"/>
    <path d="M34.177 104.157L22.5079 115.826C21.112 117.222 21.112 119.485 22.5079 120.881C23.2058 121.579 24.1206 121.928 25.0351 121.928C25.9496 121.928 26.8646 121.579 27.5623 120.881L39.2317 109.211C40.6275 107.816 40.6275 105.553 39.2317 104.157C37.836 102.761 35.5728 102.761 34.177 104.157Z" fill="black"/>
  </g>
</svg>