<svg width="17" height="18" viewBox="0 0 17 18" fill="none" xmlns="http://www.w3.org/2000/svg">
<path fill-rule="evenodd" clip-rule="evenodd" d="M12.395 10.6724C12.1829 10.5618 11.143 10.029 10.9494 9.95481C10.7558 9.88135 10.6149 9.84499 10.4733 10.0661C10.3324 10.2858 9.92738 10.783 9.80425 10.9299C9.6804 11.0776 9.55727 11.0954 9.34588 10.9855C9.1345 10.8742 8.45265 10.642 7.64482 9.891C7.01635 9.30625 6.59144 8.58422 6.46831 8.36309C6.34518 8.1427 6.45479 8.02322 6.56084 7.9134C6.65621 7.8147 6.77223 7.6559 6.87827 7.52752C6.98432 7.39841 7.0192 7.30639 7.08966 7.15872C7.16084 7.01179 7.12525 6.88341 7.07187 6.77285C7.0192 6.66228 6.59643 5.57664 6.41991 5.13511C6.24838 4.70546 6.07401 4.76408 5.94447 4.75666C5.82063 4.75072 5.6797 4.74924 5.53878 4.74924C5.39785 4.74924 5.16867 4.80415 4.97508 5.02529C4.78077 5.24568 4.23487 5.77922 4.23487 6.86486C4.23487 7.94976 4.99216 8.99829 5.09821 9.14596C5.20426 9.29289 6.58931 11.5206 8.71101 12.4756C9.21635 12.7027 9.60994 12.8385 9.9167 12.9394C10.4235 13.1078 10.8847 13.0841 11.2491 13.027C11.6548 12.9639 12.5003 12.4934 12.6768 11.9784C12.8526 11.4634 12.8526 11.0219 12.8 10.9299C12.7473 10.8379 12.6064 10.783 12.3943 10.6724H12.395ZM8.53592 16.1659H8.53308C7.27289 16.1661 6.03584 15.8129 4.95159 15.1433L4.69536 14.9845L2.03202 15.7132L2.74305 13.0062L2.57579 12.7286C1.87127 11.5594 1.49843 10.2062 1.50035 8.82539C1.50178 4.78115 4.65764 1.49084 8.53877 1.49084C10.4178 1.49084 12.1843 2.25516 13.5124 3.64134C14.1675 4.3215 14.6867 5.13034 15.04 6.02106C15.3933 6.91178 15.5737 7.86671 15.5708 8.83059C15.5694 12.8748 12.4135 16.1659 8.53592 16.1659ZM14.5231 2.58835C13.7389 1.76534 12.8058 1.11278 11.778 0.668482C10.7501 0.224181 9.6479 -0.00302483 8.53521 3.04079e-05C3.87045 3.04079e-05 0.0725977 3.95894 0.0711742 8.82465C0.0704625 10.38 0.459785 11.8983 1.20071 13.2362L0 17.8096L4.48682 16.5822C5.72801 17.2872 7.11891 17.6567 8.53236 17.6567H8.53592C13.2007 17.6567 16.9985 13.6978 17 8.83133C17.0034 7.67169 16.7863 6.52284 16.3611 5.45125C15.936 4.37966 15.3113 3.4066 14.5231 2.58835Z" fill="#FFCD00"/>
</svg>
